<svg xmlns="http://www.w3.org/2000/svg" viewBox="0 0 92.66 135.22"><defs><style>.cls-1{fill:#97c1e8;}</style></defs><g id="Capa_2" data-name="Capa 2"><g id="Capa_1-2" data-name="Capa 1"><path class="cls-1" d="M35.75,20.58c.07.48.14.51-.24.81-.83.65-2.58,1.33-3.65,2.16a35,35,0,0,0-9.53,11.67c-.91,1.93-2.75,9.46-3.17,10s-3.32,2-4.18,2.7A150.88,150.88,0,0,0,1,59.83c-.59-.38-.53-.76-.6-1.35-1.69-14.24,1.86-29.24,11.2-40.27,1.08-1.28,4.3-4.81,5.84-4.69A174.57,174.57,0,0,1,35.75,20.58Z"/><path class="cls-1" d="M18.87,49.24v5.69c0,4.34,3.31,12.58,5.73,16.26,1,1.58,4.77,5.24,5.16,6.22.82,2,.94,8.47,1.35,11.22.5,3.38,1.36,6.7,1.9,10.07C19.82,94.71,8.4,83.47,3.55,70.64,3.08,69.4,1.49,65,1.6,64c.18-1.8,9.9-8.92,11.59-10.79Z"/><path class="cls-1" d="M85.22,93.2c-2.39,1.16-4.52,2.72-6.92,3.88-12.75,6.16-27.89,6.77-41.49,3.21-.91-.46-3.72-17.71-3.41-20,2.17.79,4,2.19,6.18,3,7.47,3,14.7,3.22,22.56,1.94,1-.17,2.91-1,3.59-1,.92.09,6.68,3.25,8.24,3.89,2.78,1.15,8.43,2.67,10.58,3.94C85.05,92.41,85.36,92.51,85.22,93.2Z"/><path class="cls-1" d="M71.48,20.57C69.61,20,67.94,19,66.07,18.33A43.57,43.57,0,0,0,49,16.7c-2.36.23-8,2.45-9.43,2.3-1.14-.11-8.4-3.83-10.35-4.61-2.15-.86-7.88-2.28-9.29-3.21-.4-.27-.26-.39-.23-.81C31.39,2.41,44.55-.73,58.74.14c1.65.1,9.38,1,9.92,2.25Z"/><path class="cls-1" d="M88.36,128.54l-11.14-4.68c-.92.21-4,9.88-4.75,11.36L60.1,106.56A64.85,64.85,0,0,0,73,103.91c.9-.26,4.48-1.78,4.82-1.51Z"/><path class="cls-1" d="M47.93,106.56,36,135.21l-4.53-11.37-11.76,4.7,10.62-25.9A64.67,64.67,0,0,0,47.93,106.56Z"/><path class="cls-1" d="M71.88,2.91a46.05,46.05,0,0,1,20.78,13.6L81.05,28l-6.36-5.34A177.63,177.63,0,0,0,71.88,2.91Z"/><path class="cls-1" d="M69.91,82.22c.09-.11,2-.75,2.62-1.12,3.16-1.92,5.69-4.37,8.52-6.71l11.61,11.5c-1.09.93-3.44,4.26-4.78,4.12-4.49-1.67-9.13-3.07-13.52-5C73.66,84.73,69.28,83.07,69.91,82.22Z"/></g></g></svg>