<svg xmlns="http://www.w3.org/2000/svg" viewBox="0 0 183.72 89.11"><g id="Capa_2" data-name="Capa 2"><g id="Capa_1-2" data-name="Capa 1"><path d="M3.44,19.11H9.58V22.7a7.67,7.67,0,0,1,2.65-3.23,6.42,6.42,0,0,1,3.62-1.1,6.71,6.71,0,0,1,2.91.74l-2.23,6.16a4.92,4.92,0,0,0-2.07-.63,3.28,3.28,0,0,0-2.8,2.05c-.76,1.36-1.14,4-1.14,8l0,1.39V47.64H3.44Z" transform="translate(-0.45 -5.85)" fill="#97c1e8" stroke="#97c1e8" stroke-miterlimit="10" stroke-width="3"/><path d="M51.43,35.45h-23a7.67,7.67,0,0,0,2.67,4.84,8.38,8.38,0,0,0,5.52,1.79,9.57,9.57,0,0,0,6.9-2.8l6,2.83a14.25,14.25,0,0,1-5.4,4.73,16.81,16.81,0,0,1-7.48,1.54,14.76,14.76,0,0,1-10.94-4.24A14.43,14.43,0,0,1,21.5,33.53a14.87,14.87,0,0,1,4.21-10.84,14.14,14.14,0,0,1,10.56-4.32,14.64,14.64,0,0,1,11,4.32q4.23,4.3,4.22,11.39Zm-7.16-5.64a7.27,7.27,0,0,0-2.8-3.89,8.16,8.16,0,0,0-4.85-1.49,8.53,8.53,0,0,0-5.25,1.68,9.24,9.24,0,0,0-2.63,3.7Z" transform="translate(-0.45 -5.85)" fill="#97c1e8" stroke="#97c1e8" stroke-miterlimit="10" stroke-width="3"/><path d="M78.83,19.11H86V47.64H78.83v-3a14.09,14.09,0,0,1-4.21,2.87,11.89,11.89,0,0,1-4.57.88,12.67,12.67,0,0,1-9.56-4.29,15,15,0,0,1-4-10.66,15.36,15.36,0,0,1,3.9-10.84,12.48,12.48,0,0,1,9.49-4.22,12.17,12.17,0,0,1,4.82,1,13.36,13.36,0,0,1,4.17,2.91ZM71.3,25a7.23,7.23,0,0,0-5.52,2.35,8.47,8.47,0,0,0-2.2,6,8.55,8.55,0,0,0,2.24,6.08,7.21,7.21,0,0,0,5.5,2.39,7.37,7.37,0,0,0,5.6-2.35,8.57,8.57,0,0,0,2.22-6.15,8.34,8.34,0,0,0-2.22-6A7.47,7.47,0,0,0,71.3,25Z" transform="translate(-0.45 -5.85)" fill="#97c1e8" stroke="#97c1e8" stroke-miterlimit="10" stroke-width="3"/><path d="M94.63,8.59h7.16V19.11H106v6.16h-4.25V47.64H94.63V25.27H91V19.11h3.67Z" transform="translate(-0.45 -5.85)" fill="#97c1e8" stroke="#97c1e8" stroke-miterlimit="10" stroke-width="3"/><path d="M113.2,7.35a4.39,4.39,0,0,1,3.23,1.37,4.51,4.51,0,0,1,1.34,3.3,4.47,4.47,0,0,1-1.33,3.27,4.32,4.32,0,0,1-3.19,1.35A4.4,4.4,0,0,1,110,15.26a4.63,4.63,0,0,1-1.34-3.34,4.56,4.56,0,0,1,4.55-4.57Zm-3.58,11.76h7.16V47.64h-7.16Z" transform="translate(-0.45 -5.85)" fill="#97c1e8" stroke="#97c1e8" stroke-miterlimit="10" stroke-width="3"/><path d="M120.76,19.11h7.3L135.27,36l7.19-16.84h7.26L137.58,47.64h-4.65Z" transform="translate(-0.45 -5.85)" fill="#97c1e8" stroke="#97c1e8" stroke-miterlimit="10" stroke-width="3"/><path d="M175.51,19.11h7.16V47.64h-7.16v-3a14.09,14.09,0,0,1-4.21,2.87,11.89,11.89,0,0,1-4.57.88,12.69,12.69,0,0,1-9.56-4.29,15,15,0,0,1-4-10.66A15.32,15.32,0,0,1,157,22.59a12.44,12.44,0,0,1,9.48-4.22,12.17,12.17,0,0,1,4.82,1,13.36,13.36,0,0,1,4.17,2.91ZM168,25a7.23,7.23,0,0,0-5.52,2.35,8.46,8.46,0,0,0-2.19,6,8.54,8.54,0,0,0,2.23,6.08,7.22,7.22,0,0,0,5.5,2.39,7.37,7.37,0,0,0,5.6-2.35,8.57,8.57,0,0,0,2.22-6.15,8.34,8.34,0,0,0-2.22-6A7.47,7.47,0,0,0,168,25Z" transform="translate(-0.45 -5.85)" fill="#97c1e8" stroke="#97c1e8" stroke-miterlimit="10" stroke-width="3"/><path d="M12.46,61.19h-11v-4H28.26v4H17.19V93.42H12.46Z" transform="translate(-0.45 -5.85)" fill="#97c1e8" stroke="#97c1e8" stroke-miterlimit="10" stroke-width="2"/><path d="M29.43,81.28c.11,6.39,4.19,9,8.92,9A16.94,16.94,0,0,0,45.55,89l.81,3.39A21.11,21.11,0,0,1,37.71,94c-8,0-12.79-5.26-12.79-13.11s4.62-14,12.2-14c8.49,0,10.74,7.47,10.74,12.25a18.67,18.67,0,0,1-.16,2.2ZM43.3,77.9c.05-3-1.24-7.69-6.56-7.69-4.78,0-6.88,4.41-7.25,7.69Z" transform="translate(-0.45 -5.85)" fill="#97c1e8" stroke="#97c1e8" stroke-miterlimit="10" stroke-width="2"/><path d="M51.57,88.59a12.37,12.37,0,0,0,6.23,1.88c3.44,0,5.05-1.72,5.05-3.87S61.5,83.11,58,81.82c-4.67-1.67-6.87-4.25-6.87-7.36,0-4.19,3.38-7.63,9-7.63a13,13,0,0,1,6.39,1.61l-1.18,3.44A10.06,10.06,0,0,0,60,70.37c-2.79,0-4.35,1.62-4.35,3.55,0,2.15,1.56,3.12,4.94,4.41,4.51,1.71,6.83,4,6.83,7.84,0,4.57-3.55,7.79-9.73,7.79a14.89,14.89,0,0,1-7.31-1.77Z" transform="translate(-0.45 -5.85)" fill="#97c1e8" stroke="#97c1e8" stroke-miterlimit="10" stroke-width="2"/><path d="M77.24,60.11a2.78,2.78,0,0,1-3,2.9,2.81,2.81,0,0,1-2.85-2.9,2.88,2.88,0,0,1,3-3A2.8,2.8,0,0,1,77.24,60.11ZM72,93.42v-26h4.73v26Z" transform="translate(-0.45 -5.85)" fill="#97c1e8" stroke="#97c1e8" stroke-miterlimit="10" stroke-width="2"/><path d="M82.4,88.59a12.44,12.44,0,0,0,6.23,1.88c3.44,0,5.05-1.72,5.05-3.87s-1.34-3.49-4.83-4.78C84.17,80.15,82,77.57,82,74.46c0-4.19,3.38-7.63,9-7.63a13,13,0,0,1,6.39,1.61l-1.18,3.44a10.06,10.06,0,0,0-5.32-1.51c-2.79,0-4.35,1.62-4.35,3.55,0,2.15,1.56,3.12,5,4.41,4.51,1.71,6.82,4,6.82,7.84,0,4.57-3.55,7.79-9.73,7.79a14.85,14.85,0,0,1-7.3-1.77Z" transform="translate(-0.45 -5.85)" fill="#97c1e8" stroke="#97c1e8" stroke-miterlimit="10" stroke-width="2"/></g></g></svg>