<svg xmlns="http://www.w3.org/2000/svg" viewBox="0 0 106.79 50.49"><defs><style>.cls-1{fill:#97c1e8;}</style></defs><g id="Capa_2" data-name="Capa 2"><g id="Capa_1-2" data-name="Capa 1"><path class="cls-1" d="M106.79,50.49h-5.7c-.28,0-.42-.47-.42-.8,0-1.63.52-3.69.62-5.28.27-4.66,1.13-7.95,1.57-12.17.28-2.66-.21-5.73,0-8.44L80.48,33.22V26.74c-17.16-9.43-39.74-9.25-56.93,0v6.87L0,22.82C15.78,15.93,31.33,8.34,47.24,1.74c1.25-.52,3.84-1.88,5-1.73l51.82,22.4Z"/><path class="cls-1" d="M78.91,28.12V45a66.47,66.47,0,0,0-41.54-3.66c-4.24,1-8.16,2.67-12.25,4V28.12C41.94,19.51,62.15,19.2,78.91,28.12Z"/></g></g></svg>